<?xml version="1.0" standalone="no"?>
<!DOCTYPE svg PUBLIC "-//W3C//DTD SVG 20010904//EN"
 "http://www.w3.org/TR/2001/REC-SVG-20010904/DTD/svg10.dtd">
<svg version="1.0" xmlns="http://www.w3.org/2000/svg"
 width="512.000000pt" height="512.000000pt" viewBox="0 0 512.000000 512.000000"
 preserveAspectRatio="xMidYMid meet">

<g transform="translate(0.000000,512.000000) scale(0.100000,-0.100000)"
fill="#000000" stroke="none">
<path d="M1243 5100 c-75 -34 -83 -58 -83 -255 0 -150 2 -173 19 -199 24 -35
69 -66 99 -66 21 0 22 -3 22 -99 l0 -98 -74 -5 c-90 -6 -171 -42 -217 -96 -17
-20 -228 -379 -469 -796 -466 -806 -470 -813 -455 -915 14 -104 86 -200 184
-244 36 -17 71 -22 163 -25 l117 -4 3 -1022 3 -1021 27 -57 c34 -72 106 -141
177 -170 l56 -23 1745 0 1745 0 56 23 c71 29 143 98 177 170 l27 57 3 1021 3
1022 117 4 c92 3 127 8 163 25 134 61 209 205 180 345 -16 75 -865 1549 -932
1619 -30 30 -65 53 -103 68 -56 21 -63 21 -911 21 l-855 0 0 100 c0 95 1 100
21 100 32 0 81 34 104 72 18 29 20 51 20 193 0 187 -9 214 -85 253 -44 22 -46
22 -525 22 -452 0 -482 -2 -522 -20z m2700 -884 c18 -7 42 -24 54 -37 30 -33
646 -1100 639 -1107 -4 -3 -55 -8 -115 -10 -91 -4 -121 -1 -178 16 -86 27
-184 85 -233 138 -47 51 -79 74 -102 74 -10 0 -51 -30 -91 -67 -134 -124 -248
-168 -416 -161 -86 4 -119 10 -174 33 -74 30 -151 85 -207 147 -21 23 -48 41
-67 44 -28 6 -38 -1 -110 -67 -123 -115 -228 -159 -383 -159 -155 0 -260 44
-383 159 -72 67 -82 73 -110 67 -19 -4 -49 -25 -77 -54 -59 -62 -125 -107
-203 -140 -84 -34 -245 -43 -333 -17 -90 26 -171 73 -251 148 -40 37 -81 67
-91 67 -22 0 -43 -15 -115 -84 -66 -63 -170 -119 -254 -136 -63 -14 -238 -9
-252 5 -9 10 572 1026 625 1093 51 65 -41 61 1442 62 1124 0 1358 -2 1385 -14z
m-1083 -2586 l0 -100 -310 0 -310 0 0 100 0 100 310 0 310 0 0 -100z m-1402
-277 l2 -323 -195 0 -195 0 0 318 c0 175 3 322 7 326 4 3 90 5 192 4 l186 -3
3 -322z m2590 0 l2 -323 -195 0 -195 0 0 318 c0 175 3 322 7 326 4 3 90 5 192
4 l186 -3 3 -322z m-1188 -578 l0 -345 -310 0 -310 0 0 345 0 345 310 0 310 0
0 -345z"/>
</g>
</svg>
